<svg xmlns="http://www.w3.org/2000/svg" width="100" height="100" fill="none"><g clip-path="url(#a)"><rect width="100" height="100" fill="#4169E1" rx="33"/><path fill="#E8EAED" d="M50 75q-2.062 0-3.531-1.469T45 70V50q0-2.062 1.469-3.531T50 45h20q2.063 0 3.531 1.469Q75.001 47.938 75 50v20q0 2.063-1.469 3.531Q72.062 75.001 70 75zm0-5h20V50H50zm-15-5V40q0-2.062 1.469-3.531T40 35h25v5H40v25zM25 55V30q0-2.062 1.469-3.531Q27.937 24.999 30 25h25v5H30v25z"/></g><defs><clipPath id="a"><path fill="#fff" d="M0 0h100v100H0z"/></clipPath></defs></svg>