<svg xmlns="http://www.w3.org/2000/svg" width="100" height="100" fill="none"><rect width="100" height="100" fill="#171717" rx="20"/><path fill="#fff" fill-rule="evenodd" d="M37.897 72.677c12.524 0 22.677-10.153 22.677-22.677S50.421 27.323 37.897 27.323 15.22 37.476 15.22 50s10.152 22.677 22.677 22.677m2.772-19.249-5.58 7.113h4.96l8.243-10.577-8.207-10.505h-5.033l5.617 7.222q.365.474.839.839.474.364.875.474h-14.88v4.012h15.026q-.402.11-.948.51-.51.366-.912.913" clip-rule="evenodd"/><path fill="tomato" fill-rule="evenodd" d="M52.533 70.565C58.952 65.99 63.137 58.483 63.137 50s-4.185-15.989-10.604-20.565a22.6 22.6 0 0 1 9.57-2.112c12.524 0 22.678 10.153 22.678 22.677S74.627 72.677 62.103 72.677c-3.42 0-6.662-.756-9.57-2.112" clip-rule="evenodd"/></svg>